<?xml version="1.0" encoding="UTF-8" standalone="no"?>
<!-- Created with Inkscape (http://www.inkscape.org/) -->

<svg
   width="600"
   height="400"
   viewBox="0 0 158.74999 105.83333"
   version="1.1"
   id="svg2515"
   inkscape:version="1.2 (dc2aedaf03, 2022-05-15)"
   sodipodi:docname="geometry.svg"
   xmlns:inkscape="http://www.inkscape.org/namespaces/inkscape"
   xmlns:sodipodi="http://sodipodi.sourceforge.net/DTD/sodipodi-0.dtd"
   xmlns:xlink="http://www.w3.org/1999/xlink"
   xmlns="http://www.w3.org/2000/svg"
   xmlns:svg="http://www.w3.org/2000/svg">
  <sodipodi:namedview
     id="namedview2517"
     pagecolor="#ffffff"
     bordercolor="#000000"
     borderopacity="0.25"
     inkscape:showpageshadow="2"
     inkscape:pageopacity="0.0"
     inkscape:pagecheckerboard="0"
     inkscape:deskcolor="#d1d1d1"
     inkscape:document-units="mm"
     showgrid="false"
     inkscape:zoom="0.6743757"
     inkscape:cx="175.71808"
     inkscape:cy="273.58637"
     inkscape:window-width="1350"
     inkscape:window-height="868"
     inkscape:window-x="53"
     inkscape:window-y="47"
     inkscape:window-maximized="0"
     inkscape:current-layer="layer2" />
  <defs
     id="defs2512">
    <marker
       style="overflow:visible"
       id="Arrow2"
       refX="0"
       refY="0"
       orient="auto-start-reverse"
       inkscape:stockid="Arrow2"
       markerWidth="7.6999998"
       markerHeight="5.5999999"
       viewBox="0 0 7.7 5.6"
       inkscape:isstock="true"
       inkscape:collect="always"
       preserveAspectRatio="xMidYMid">
      <path
         transform="scale(0.7)"
         d="M -2,-4 9,0 -2,4 c 2,-2.33 2,-5.66 0,-8 z"
         style="fill:context-stroke;fill-rule:evenodd;stroke:none"
         id="arrow2L" />
    </marker>
    <marker
       style="overflow:visible"
       id="Arrow2-0"
       refX="0"
       refY="0"
       orient="auto-start-reverse"
       inkscape:stockid="Arrow2"
       markerWidth="7.6999998"
       markerHeight="5.5999999"
       viewBox="0 0 7.7 5.6"
       inkscape:isstock="true"
       inkscape:collect="always"
       preserveAspectRatio="xMidYMid">
      <path
         transform="scale(0.7)"
         d="M -2,-4 9,0 -2,4 c 2,-2.33 2,-5.66 0,-8 z"
         style="fill:context-stroke;fill-rule:evenodd;stroke:none"
         id="arrow2L-2" />
    </marker>
    <clipPath
       clipPathUnits="userSpaceOnUse"
       id="clipPath4078">
      <rect
         style="font-variation-settings:normal;opacity:1;vector-effect:none;fill:none;fill-opacity:1;fill-rule:evenodd;stroke:#ed1857;stroke-width:0.705554;stroke-linecap:butt;stroke-linejoin:miter;stroke-miterlimit:10;stroke-dasharray:3.175, 3.175;stroke-dashoffset:0;stroke-opacity:1;-inkscape-stroke:none;stop-color:#000000;stop-opacity:1"
         id="rect4080"
         width="63.362617"
         height="25.501982"
         x="6.0812416"
         y="26.286657" />
    </clipPath>
    <clipPath
       id="clip-0">
      <path
         clip-rule="nonzero"
         d="M 0,0 H 11 V 6.226563 H 0 Z m 0,0"
         id="path27" />
    </clipPath>
    <clipPath
       id="clip-1">
      <path
         clip-rule="nonzero"
         d="m 36,0 h 6 v 6.226563 h -6 z m 0,0"
         id="path30" />
    </clipPath>
    <clipPath
       id="clip-2">
      <path
         clip-rule="nonzero"
         d="m 45,0 h 6 v 6.226563 h -6 z m 0,0"
         id="path33" />
    </clipPath>
    <clipPath
       id="clip-3">
      <path
         clip-rule="nonzero"
         d="M 55,0 H 67.707031 V 5 H 55 Z m 0,0"
         id="path36" />
    </clipPath>
    <clipPath
       id="clipPath9874">
      <path
         clip-rule="nonzero"
         d="M 0,0 H 4 V 9.964844 H 0 Z m 0,0"
         id="path25" />
    </clipPath>
    <clipPath
       id="clipPath9877">
      <path
         clip-rule="nonzero"
         d="m 14,6 h 3 v 3.964844 h -3 z m 0,0"
         id="path28" />
    </clipPath>
    <clipPath
       id="clipPath9880">
      <path
         clip-rule="nonzero"
         d="m 18,3 h 6 v 6.964844 h -6 z m 0,0"
         id="path31" />
    </clipPath>
    <clipPath
       id="clipPath9883">
      <path
         clip-rule="nonzero"
         d="m 28,0 h 3 v 9.964844 h -3 z m 0,0"
         id="path34" />
    </clipPath>
    <marker
       style="overflow:visible"
       id="Arrow2-0-7"
       refX="0"
       refY="0"
       orient="auto-start-reverse"
       inkscape:stockid="Arrow2"
       markerWidth="7.6999998"
       markerHeight="5.5999999"
       viewBox="0 0 7.7 5.6"
       inkscape:isstock="true"
       inkscape:collect="always"
       preserveAspectRatio="xMidYMid">
      <path
         transform="scale(0.7)"
         d="M -2,-4 9,0 -2,4 c 2,-2.33 2,-5.66 0,-8 z"
         style="fill:context-stroke;fill-rule:evenodd;stroke:none"
         id="arrow2L-2-7" />
    </marker>
    <marker
       style="overflow:visible"
       id="Arrow2-2"
       refX="0"
       refY="0"
       orient="auto-start-reverse"
       inkscape:stockid="Arrow2"
       markerWidth="7.6999998"
       markerHeight="5.5999999"
       viewBox="0 0 7.7 5.6"
       inkscape:isstock="true"
       inkscape:collect="always"
       preserveAspectRatio="xMidYMid">
      <path
         transform="scale(0.7)"
         d="M -2,-4 9,0 -2,4 c 2,-2.33 2,-5.66 0,-8 z"
         style="fill:context-stroke;fill-rule:evenodd;stroke:none"
         id="arrow2L-29" />
    </marker>
    <marker
       style="overflow:visible"
       id="Arrow2-0-7-2"
       refX="0"
       refY="0"
       orient="auto-start-reverse"
       inkscape:stockid="Arrow2"
       markerWidth="7.6999998"
       markerHeight="5.5999999"
       viewBox="0 0 7.7 5.6"
       inkscape:isstock="true"
       inkscape:collect="always"
       preserveAspectRatio="xMidYMid">
      <path
         transform="scale(0.7)"
         d="M -2,-4 9,0 -2,4 c 2,-2.33 2,-5.66 0,-8 z"
         style="fill:context-stroke;fill-rule:evenodd;stroke:none"
         id="arrow2L-2-7-0" />
    </marker>
  </defs>
  <g
     inkscape:groupmode="layer"
     id="layer2"
     inkscape:label="Background"
     style="display:inline">
    <rect
       style="font-variation-settings:normal;opacity:1;vector-effect:none;fill:#e7e7e7;fill-opacity:1;fill-rule:evenodd;stroke:#ed1857;stroke-width:0.461615;stroke-linecap:butt;stroke-linejoin:miter;stroke-miterlimit:10;stroke-dasharray:2.07726, 2.07726;stroke-dashoffset:0;stroke-opacity:1;-inkscape-stroke:none;stop-color:#000000;stop-opacity:1"
       id="rect4425"
       width="164.49191"
       height="112.38986"
       x="-3.3123574"
       y="-2.4800825" />
  </g>
  <g
     inkscape:label="Layer 1"
     inkscape:groupmode="layer"
     id="layer1">
    <g
       id="g4074"
       clip-path="url(#clipPath4078)"
       transform="matrix(2.3142414,0,0,2.6744185,-7.1094591,-32.425991)"
       style="stroke-width:1.075">
      <g
         id="g4069"
         style="stroke-width:1.075">
        <rect
           style="font-variation-settings:normal;opacity:1;vector-effect:none;fill:#ffe06f;fill-opacity:0.74902;fill-rule:evenodd;stroke:#000000;stroke-width:0.341313;stroke-linecap:butt;stroke-linejoin:miter;stroke-miterlimit:4;stroke-dasharray:none;stroke-dashoffset:0;stroke-opacity:1;-inkscape-stroke:none;stop-color:#000000;stop-opacity:1"
           id="rect3619"
           width="72.190224"
           height="6.4735789"
           x="3.9471817"
           y="43.2519" />
      </g>
      <use
         x="0"
         y="0"
         xlink:href="#rect3619"
         id="use3649"
         transform="translate(0,-15.006935)"
         style="stroke-width:1.075" />
    </g>
    <g
       id="g11591"
       transform="translate(-8.6718215,-5.1003963)">
      <path
         style="fill:none;fill-opacity:0.74902;stroke:#000000;stroke-width:0.4;stroke-dasharray:none;stroke-opacity:1;marker-start:url(#Arrow2);marker-end:url(#Arrow2-0-7);stop-color:#000000"
         d="M 83.96037,85.082641 V 68.766714"
         id="path2690-0-7"
         sodipodi:nodetypes="cc" />
      <path
         style="fill:none;fill-opacity:0.74902;stroke:#000000;stroke-width:0.4;stroke-dasharray:none;stroke-opacity:1;marker-start:url(#Arrow2-2);marker-end:url(#Arrow2-0-7-2);stop-color:#000000"
         d="M 83.96037,62.398716 V 51.575524"
         id="path2690-0-7-1"
         sodipodi:nodetypes="cc" />
    </g>
    <g
       id="g11633"
       transform="translate(-8.0453246,-5.1003963)">
      <path
         style="fill:none;fill-opacity:0.74902;stroke:#000000;stroke-width:0.6;stroke-dasharray:none;stroke-opacity:1;marker-end:url(#Arrow2);stop-color:#000000"
         d="M 39.292902,76.937204 H 61.050444"
         id="path2690" />
      <path
         style="fill:none;fill-opacity:0.74902;stroke:#000000;stroke-width:0.6;stroke-dasharray:none;stroke-opacity:1;marker-end:url(#Arrow2-0);stop-color:#000000"
         d="M 43.205019,79.704415 V 71.823759"
         id="path2690-0" />
      <circle
         style="font-variation-settings:normal;opacity:1;fill:none;fill-opacity:0.74902;stroke:#000000;stroke-width:0.6;stroke-dasharray:none;stroke-opacity:1;stop-color:#000000;stop-opacity:1"
         id="path4177"
         cx="43.205021"
         cy="76.937202"
         r="1.3443854" />
      <path
         d="m 65.460171,79.339891 c 0.03111,-0.124455 0.147791,-0.583387 0.490045,-0.583387 0.02334,0 0.147791,0 0.248911,0.06223 -0.140012,0.03111 -0.233354,0.147792 -0.233354,0.272248 0,0.07778 0.05445,0.171127 0.186684,0.171127 0.108898,0 0.264468,-0.08556 0.264468,-0.287805 0,-0.25669 -0.287804,-0.326696 -0.458931,-0.326696 -0.287804,0 -0.458931,0.264468 -0.521159,0.373367 -0.124456,-0.326696 -0.388924,-0.373367 -0.536716,-0.373367 -0.51338,0 -0.801185,0.637836 -0.801185,0.762292 0,0.05445 0.05445,0.05445 0.06223,0.05445 0.03889,0 0.05445,-0.01556 0.06223,-0.05445 0.171127,-0.528938 0.497824,-0.653394 0.668951,-0.653394 0.09334,0 0.264468,0.04667 0.264468,0.334476 0,0.15557 -0.08556,0.482266 -0.264468,1.182331 -0.07779,0.303361 -0.256691,0.51338 -0.474488,0.51338 -0.03111,0 -0.140013,0 -0.248912,-0.06223 0.124456,-0.03111 0.233355,-0.132234 0.233355,-0.272247 0,-0.132234 -0.108899,-0.171127 -0.178906,-0.171127 -0.15557,0 -0.272247,0.124456 -0.272247,0.287804 0,0.225577 0.241133,0.326697 0.458931,0.326697 0.334475,0 0.513381,-0.350032 0.521159,-0.373368 0.06223,0.178906 0.241133,0.373368 0.536716,0.373368 0.513381,0 0.793406,-0.637836 0.793406,-0.762292 0,-0.05445 -0.03889,-0.05445 -0.05445,-0.05445 -0.04667,0 -0.05445,0.02334 -0.07001,0.05445 -0.163349,0.536716 -0.497824,0.653393 -0.653394,0.653393 -0.194462,0 -0.272247,-0.15557 -0.272247,-0.326697 0,-0.108899 0.02334,-0.217797 0.07778,-0.435595 z m 0,0"
         id="path101"
         clip-path="none"
         style="stroke-width:0.497824" />
      <path
         d="m 40.408439,67.769329 c 0.02334,-0.07001 0.02334,-0.07779 0.02334,-0.116678 0,-0.08556 -0.07001,-0.132234 -0.147792,-0.132234 -0.04667,0 -0.124456,0.03111 -0.171126,0.10112 -0.0078,0.03111 -0.05445,0.178906 -0.07001,0.272248 -0.03889,0.124456 -0.07001,0.264468 -0.10112,0.396703 l -0.225577,0.894526 c -0.01556,0.07001 -0.233354,0.420039 -0.560051,0.420039 -0.248912,0 -0.303361,-0.217798 -0.303361,-0.404482 0,-0.225576 0.08556,-0.536716 0.248911,-0.972311 0.07779,-0.202241 0.101121,-0.25669 0.101121,-0.357811 0,-0.217798 -0.15557,-0.404481 -0.404482,-0.404481 -0.474488,0 -0.653393,0.723399 -0.653393,0.762292 0,0.05445 0.04667,0.05445 0.05445,0.05445 0.05445,0 0.05445,-0.01556 0.07778,-0.09334 0.140013,-0.466709 0.334475,-0.614501 0.505602,-0.614501 0.03889,0 0.124456,0 0.124456,0.15557 0,0.124456 -0.05445,0.256691 -0.08556,0.350033 -0.202241,0.528937 -0.287805,0.808963 -0.287805,1.042318 0,0.443374 0.31114,0.591165 0.606723,0.591165 0.194462,0 0.357811,-0.08556 0.497823,-0.225576 -0.06223,0.25669 -0.124455,0.505602 -0.318918,0.77007 -0.132234,0.163349 -0.318918,0.31114 -0.544494,0.31114 -0.07001,0 -0.295583,-0.01556 -0.381146,-0.210019 0.07778,0 0.147791,0 0.210019,-0.06223 0.05445,-0.03889 0.10112,-0.108899 0.10112,-0.202241 0,-0.15557 -0.132234,-0.171127 -0.178905,-0.171127 -0.116677,0 -0.280026,0.07778 -0.280026,0.318918 0,0.248912 0.217798,0.435596 0.528938,0.435596 0.505602,0 1.018982,-0.451152 1.158995,-1.011204 z m 0,0"
         id="path105"
         clip-path="none"
         style="stroke-width:0.497824" />
      <path
         d="m 38.685506,80.428881 c 0.264469,-0.287804 0.41226,-0.41226 0.591165,-0.56783 0,0 0.303362,-0.264468 0.482267,-0.443374 0.474488,-0.458931 0.583387,-0.700064 0.583387,-0.723399 0,-0.04667 -0.04667,-0.04667 -0.05445,-0.04667 -0.03889,0 -0.04667,0.0078 -0.07778,0.05445 -0.147792,0.241133 -0.248912,0.318918 -0.36559,0.318918 -0.124455,0 -0.178905,-0.07779 -0.25669,-0.163348 -0.09334,-0.108899 -0.178905,-0.210019 -0.342253,-0.210019 -0.373368,0 -0.598944,0.458931 -0.598944,0.56783 0,0.02333 0.01556,0.05445 0.05445,0.05445 0.04667,0 0.05445,-0.02334 0.07001,-0.05445 0.09334,-0.233355 0.381147,-0.233355 0.420039,-0.233355 0.10112,0 0.194462,0.03111 0.31114,0.07001 0.202241,0.07778 0.25669,0.07778 0.381146,0.07778 -0.178905,0.210019 -0.591166,0.56783 -0.684507,0.645615 l -0.451162,0.420038 c -0.334475,0.334475 -0.513381,0.614501 -0.513381,0.653393 0,0.04667 0.05445,0.04667 0.06223,0.04667 0.03889,0 0.04667,-0.0078 0.07778,-0.06223 0.116678,-0.178905 0.264469,-0.31114 0.427817,-0.31114 0.108899,0 0.163349,0.04667 0.287805,0.186684 0.07778,0.108899 0.171126,0.186684 0.311139,0.186684 0.497824,0 0.785628,-0.630058 0.785628,-0.762292 0,-0.02334 -0.02333,-0.05445 -0.06223,-0.05445 -0.04667,0 -0.05445,0.03111 -0.07001,0.07001 -0.116678,0.318918 -0.435596,0.41226 -0.598944,0.41226 -0.09334,0 -0.186684,-0.03111 -0.287804,-0.06223 -0.171127,-0.06223 -0.248912,-0.08556 -0.350033,-0.08556 -0.0078,0 -0.08556,0 -0.132234,0.01556 z m 0,0"
         id="path109"
         clip-path="none"
         style="stroke-width:0.497824" />
    </g>
    <path
       d="m 81.689666,71.019206 c -0.09335,-0.186684 -0.233355,-0.318917 -0.458931,-0.318917 -0.575609,0 -1.190109,0.731178 -1.190109,1.454578 0,0.466709 0.272246,0.793406 0.653393,0.793406 0.101123,0 0.350032,-0.02334 0.645615,-0.373368 0.03889,0.21002 0.217797,0.373368 0.451152,0.373368 0.178905,0 0.287805,-0.116674 0.373367,-0.272247 0.07778,-0.178906 0.147792,-0.482267 0.147792,-0.490045 0,-0.05444 -0.04667,-0.05444 -0.06223,-0.05444 -0.04667,0 -0.05444,0.02334 -0.07001,0.09333 -0.08556,0.318919 -0.171127,0.614502 -0.373368,0.614502 -0.140014,0 -0.147791,-0.132239 -0.147791,-0.225577 0,-0.108898 0.0078,-0.155569 0.06223,-0.373367 0.05444,-0.20224 0.06223,-0.25669 0.108898,-0.443374 l 0.178905,-0.692286 c 0.03112,-0.140014 0.03112,-0.147791 0.03112,-0.171126 0,-0.08556 -0.05444,-0.132239 -0.140015,-0.132239 -0.12445,0 -0.194462,0.108898 -0.210019,0.217797 z m -0.318919,1.283452 c -0.03112,0.09335 -0.03112,0.101123 -0.101123,0.186684 -0.217798,0.272247 -0.420038,0.350032 -0.560052,0.350032 -0.248911,0 -0.318917,-0.272248 -0.318917,-0.46671 0,-0.248912 0.15557,-0.855634 0.272246,-1.088988 0.15557,-0.287804 0.373369,-0.474489 0.57561,-0.474489 0.318917,0 0.388924,0.404482 0.388924,0.435596 0,0.03112 -0.0078,0.06223 -0.01557,0.08556 z m 0,0"
       id="path145"
       clip-path="none"
       style="stroke-width:0.497824" />
    <path
       d="m 81.681865,51.697314 c 0.02334,-0.108899 0.07001,-0.295583 0.07001,-0.326697 0,-0.08556 -0.07001,-0.132234 -0.140012,-0.132234 -0.06223,0 -0.147792,0.03889 -0.186684,0.140013 -0.01556,0.03111 -0.248912,0.98009 -0.280026,1.112324 -0.03889,0.147792 -0.04667,0.233355 -0.04667,0.326697 0,0.05445 0,0.06223 0.0078,0.08556 -0.116678,0.264469 -0.264469,0.420039 -0.458931,0.420039 -0.396704,0 -0.396704,-0.365589 -0.396704,-0.451152 0,-0.15557 0.02334,-0.350033 0.256691,-0.964534 0.05445,-0.147791 0.08556,-0.217797 0.08556,-0.318918 0,-0.217798 -0.163348,-0.404481 -0.404482,-0.404481 -0.474488,0 -0.653393,0.723399 -0.653393,0.762292 0,0.05445 0.04667,0.05445 0.05445,0.05445 0.05445,0 0.05445,-0.01556 0.07778,-0.09334 0.140013,-0.458931 0.326697,-0.614501 0.505602,-0.614501 0.04667,0 0.124456,0.0078 0.124456,0.163349 0,0.124456 -0.05445,0.264469 -0.09334,0.350032 -0.217797,0.583387 -0.272247,0.808963 -0.272247,1.003426 0,0.451152 0.326697,0.622279 0.700065,0.622279 0.08556,0 0.318918,0 0.51338,-0.350032 0.132234,0.318918 0.474488,0.350032 0.622279,0.350032 0.373368,0 0.591166,-0.31114 0.7234,-0.606722 0.163349,-0.388925 0.326697,-1.057875 0.326697,-1.29123 0,-0.272247 -0.132234,-0.350032 -0.217798,-0.350032 -0.124456,0 -0.248912,0.132234 -0.248912,0.241133 0,0.06223 0.03111,0.09334 0.07001,0.132234 0.05445,0.05445 0.178905,0.178906 0.178905,0.420039 0,0.171127 -0.140013,0.653393 -0.272247,0.910083 -0.124456,0.264469 -0.303361,0.435596 -0.544495,0.435596 -0.233354,0 -0.365589,-0.147791 -0.365589,-0.435596 0,-0.132234 0.03111,-0.287804 0.05445,-0.35781 z m 0,0"
       id="path149"
       clip-path="none"
       style="stroke-width:0.497824" />
    <g
       id="g11587"
       transform="translate(10.819574,-4.8229713)">
      <rect
         style="font-variation-settings:normal;opacity:1;vector-effect:none;fill:#ffe06f;fill-opacity:0.74902;fill-rule:evenodd;stroke:#000000;stroke-width:0.849128;stroke-linecap:butt;stroke-linejoin:miter;stroke-miterlimit:4;stroke-dasharray:none;stroke-dashoffset:0;stroke-opacity:1;-inkscape-stroke:none;stop-color:#000000;stop-opacity:1"
         id="rect4099"
         width="25.969593"
         height="19.673935"
         x="96.414818"
         y="16.744015" />
      <g
         inkscape:label=""
         transform="matrix(1.4111524,0,0,1.4111524,86.962097,38.409457)"
         id="g10119">
        <g
           fill="#000000"
           fill-opacity="1"
           id="g29"
           transform="matrix(0.352778,0,0,0.352778,-32.7764,-26.2744)">
          <g
             id="use27"
             transform="translate(91.925003,81.962997)">
            <path
               d="m 3.296875,2.390625 c 0,-0.03125 0,-0.046875 -0.171875,-0.21875 C 1.890625,0.921875 1.5625,-0.96875 1.5625,-2.5 c 0,-1.734375 0.375,-3.46875 1.609375,-4.703125 0.125,-0.125 0.125,-0.140625 0.125,-0.171875 0,-0.078125 -0.03125,-0.109375 -0.09375,-0.109375 -0.109375,0 -1,0.6875 -1.59375,1.953125 -0.5,1.09375 -0.625,2.203125 -0.625,3.03125 0,0.78125 0.109375,1.984375 0.65625,3.125 C 2.25,1.84375 3.09375,2.5 3.203125,2.5 c 0.0625,0 0.09375,-0.03125 0.09375,-0.109375 z m 0,0"
               id="path59" />
          </g>
        </g>
        <g
           fill="#000000"
           fill-opacity="1"
           id="g33"
           transform="matrix(0.352778,0,0,0.352778,-32.7764,-26.2744)">
          <g
             id="use31"
             transform="translate(95.800003,81.962997)">
            <path
               d="M 3.328125,-3.015625 C 3.390625,-3.265625 3.625,-4.1875 4.3125,-4.1875 c 0.046875,0 0.296875,0 0.5,0.125 C 4.53125,-4 4.34375,-3.765625 4.34375,-3.515625 c 0,0.15625 0.109375,0.34375 0.375,0.34375 0.21875,0 0.53125,-0.171875 0.53125,-0.578125 0,-0.515625 -0.578125,-0.65625 -0.921875,-0.65625 -0.578125,0 -0.921875,0.53125 -1.046875,0.75 -0.25,-0.65625 -0.78125,-0.75 -1.078125,-0.75 -1.03125,0 -1.609375,1.28125 -1.609375,1.53125 0,0.109375 0.109375,0.109375 0.125,0.109375 0.078125,0 0.109375,-0.03125 0.125,-0.109375 0.34375,-1.0625 1,-1.3125 1.34375,-1.3125 0.1875,0 0.53125,0.09375 0.53125,0.671875 0,0.3125 -0.171875,0.96875 -0.53125,2.375 -0.15625,0.609375 -0.515625,1.03125 -0.953125,1.03125 -0.0625,0 -0.28125,0 -0.5,-0.125 0.25,-0.0625 0.46875,-0.265625 0.46875,-0.546875 0,-0.265625 -0.21875,-0.34375 -0.359375,-0.34375 -0.3125,0 -0.546875,0.25 -0.546875,0.578125 0,0.453125 0.484375,0.65625 0.921875,0.65625 0.671875,0 1.03125,-0.703125 1.046875,-0.75 0.125,0.359375 0.484375,0.75 1.078125,0.75 1.03125,0 1.59375,-1.28125 1.59375,-1.53125 0,-0.109375 -0.078125,-0.109375 -0.109375,-0.109375 -0.09375,0 -0.109375,0.046875 -0.140625,0.109375 -0.328125,1.078125 -1,1.3125 -1.3125,1.3125 -0.390625,0 -0.546875,-0.3125 -0.546875,-0.65625 0,-0.21875 0.046875,-0.4375 0.15625,-0.875 z m 0,0"
               id="path63" />
          </g>
        </g>
        <g
           fill="#000000"
           fill-opacity="1"
           id="g37"
           transform="matrix(0.352778,0,0,0.352778,-32.7764,-26.2744)">
          <g
             id="use35"
             transform="translate(101.494,83.457001)">
            <path
               d="m 2.328125,-4.4375 c 0,-0.1875 0,-0.1875 -0.203125,-0.1875 -0.453125,0.4375 -1.078125,0.4375 -1.359375,0.4375 v 0.25 c 0.15625,0 0.625,0 1,-0.1875 v 3.546875 c 0,0.234375 0,0.328125 -0.6875,0.328125 H 0.8125 V 0 c 0.125,0 0.984375,-0.03125 1.234375,-0.03125 0.21875,0 1.09375,0.03125 1.25,0.03125 V -0.25 H 3.03125 c -0.703125,0 -0.703125,-0.09375 -0.703125,-0.328125 z m 0,0"
               id="path67" />
          </g>
        </g>
        <g
           fill="#000000"
           fill-opacity="1"
           id="g41"
           transform="matrix(0.352778,0,0,0.352778,-32.7764,-26.2744)">
          <g
             id="use39"
             transform="translate(105.963,81.962997)">
            <path
               d="m 2.03125,-0.015625 c 0,-0.65625 -0.25,-1.046875 -0.640625,-1.046875 -0.328125,0 -0.53125,0.25 -0.53125,0.53125 C 0.859375,-0.265625 1.0625,0 1.390625,0 1.5,0 1.640625,-0.046875 1.734375,-0.125 1.765625,-0.15625 1.78125,-0.15625 1.78125,-0.15625 c 0.015625,0 0.015625,0 0.015625,0.140625 0,0.75 -0.34375,1.34375 -0.671875,1.671875 -0.109375,0.109375 -0.109375,0.125 -0.109375,0.15625 0,0.078125 0.046875,0.109375 0.09375,0.109375 0.109375,0 0.921875,-0.765625 0.921875,-1.9375 z m 0,0"
               id="path71" />
          </g>
        </g>
        <g
           fill="#000000"
           fill-opacity="1"
           id="g45"
           transform="matrix(0.352778,0,0,0.352778,-32.7764,-26.2744)">
          <g
             id="use43"
             transform="translate(110.39436,81.962997)">
            <path
               d="m 4.84375,-3.796875 c 0.046875,-0.140625 0.046875,-0.15625 0.046875,-0.234375 0,-0.171875 -0.140625,-0.265625 -0.296875,-0.265625 -0.09375,0 -0.25,0.0625 -0.34375,0.203125 -0.015625,0.0625 -0.109375,0.359375 -0.140625,0.546875 -0.078125,0.25 -0.140625,0.53125 -0.203125,0.796875 l -0.453125,1.796875 c -0.03125,0.140625 -0.46875,0.84375 -1.125,0.84375 -0.5,0 -0.609375,-0.4375 -0.609375,-0.8125 C 1.71875,-1.375 1.890625,-2 2.21875,-2.875 2.375,-3.28125 2.421875,-3.390625 2.421875,-3.59375 c 0,-0.4375 -0.3125,-0.8125 -0.8125,-0.8125 -0.953125,0 -1.3125,1.453125 -1.3125,1.53125 0,0.109375 0.09375,0.109375 0.109375,0.109375 0.109375,0 0.109375,-0.03125 0.15625,-0.1875 0.28125,-0.9375 0.671875,-1.234375 1.015625,-1.234375 0.078125,0 0.25,0 0.25,0.3125 0,0.25 -0.109375,0.515625 -0.171875,0.703125 -0.40625,1.0625 -0.578125,1.625 -0.578125,2.09375 0,0.890625 0.625,1.1875 1.21875,1.1875 0.390625,0 0.71875,-0.171875 1,-0.453125 -0.125,0.515625 -0.25,1.015625 -0.640625,1.546875 -0.265625,0.328125 -0.640625,0.625 -1.09375,0.625 -0.140625,0 -0.59375,-0.03125 -0.765625,-0.421875 0.15625,0 0.296875,0 0.421875,-0.125 C 1.328125,1.203125 1.421875,1.0625 1.421875,0.875 1.421875,0.5625 1.15625,0.53125 1.0625,0.53125 0.828125,0.53125 0.5,0.6875 0.5,1.171875 c 0,0.5 0.4375,0.875 1.0625,0.875 1.015625,0 2.046875,-0.90625 2.328125,-2.03125 z m 0,0"
               id="path75" />
          </g>
        </g>
        <g
           fill="#000000"
           fill-opacity="1"
           id="g49"
           transform="matrix(0.352778,0,0,0.352778,-32.7764,-26.2744)">
          <g
             id="use47"
             transform="translate(115.275,83.457001)">
            <path
               d="m 2.328125,-4.4375 c 0,-0.1875 0,-0.1875 -0.203125,-0.1875 -0.453125,0.4375 -1.078125,0.4375 -1.359375,0.4375 v 0.25 c 0.15625,0 0.625,0 1,-0.1875 v 3.546875 c 0,0.234375 0,0.328125 -0.6875,0.328125 H 0.8125 V 0 c 0.125,0 0.984375,-0.03125 1.234375,-0.03125 0.21875,0 1.09375,0.03125 1.25,0.03125 V -0.25 H 3.03125 c -0.703125,0 -0.703125,-0.09375 -0.703125,-0.328125 z m 0,0"
               id="path79" />
          </g>
        </g>
        <g
           fill="#000000"
           fill-opacity="1"
           id="g53"
           transform="matrix(0.352778,0,0,0.352778,-32.7764,-26.2744)">
          <g
             id="use51"
             transform="translate(119.745,81.962997)">
            <path
               d="m 2.875,-2.5 c 0,-0.765625 -0.109375,-1.96875 -0.65625,-3.109375 -0.59375,-1.21875 -1.453125,-1.875 -1.546875,-1.875 -0.0625,0 -0.109375,0.046875 -0.109375,0.109375 0,0.03125 0,0.046875 0.1875,0.234375 0.984375,0.984375 1.546875,2.5625 1.546875,4.640625 0,1.71875 -0.359375,3.46875 -1.59375,4.71875 C 0.5625,2.34375 0.5625,2.359375 0.5625,2.390625 0.5625,2.453125 0.609375,2.5 0.671875,2.5 0.765625,2.5 1.671875,1.8125 2.25,0.546875 2.765625,-0.546875 2.875,-1.65625 2.875,-2.5 Z m 0,0"
               id="path83" />
          </g>
        </g>
      </g>
      <g
         inkscape:label=""
         transform="matrix(1.4111524,0,0,1.4111524,118.73911,9.543318)"
         id="g10351">
        <g
           fill="#000000"
           fill-opacity="1"
           id="g10313"
           transform="matrix(0.352778,0,0,0.352778,-32.7764,-26.2744)">
          <g
             id="g10311"
             transform="translate(91.925003,81.962997)">
            <path
               d="m 3.296875,2.390625 c 0,-0.03125 0,-0.046875 -0.171875,-0.21875 C 1.890625,0.921875 1.5625,-0.96875 1.5625,-2.5 c 0,-1.734375 0.375,-3.46875 1.609375,-4.703125 0.125,-0.125 0.125,-0.140625 0.125,-0.171875 0,-0.078125 -0.03125,-0.109375 -0.09375,-0.109375 -0.109375,0 -1,0.6875 -1.59375,1.953125 -0.5,1.09375 -0.625,2.203125 -0.625,3.03125 0,0.78125 0.109375,1.984375 0.65625,3.125 C 2.25,1.84375 3.09375,2.5 3.203125,2.5 c 0.0625,0 0.09375,-0.03125 0.09375,-0.109375 z m 0,0"
               id="path10309" />
          </g>
        </g>
        <g
           fill="#000000"
           fill-opacity="1"
           id="g10319"
           transform="matrix(0.352778,0,0,0.352778,-32.7764,-26.2744)">
          <g
             id="g10317"
             transform="translate(95.800003,81.962997)">
            <path
               d="M 3.328125,-3.015625 C 3.390625,-3.265625 3.625,-4.1875 4.3125,-4.1875 c 0.046875,0 0.296875,0 0.5,0.125 C 4.53125,-4 4.34375,-3.765625 4.34375,-3.515625 c 0,0.15625 0.109375,0.34375 0.375,0.34375 0.21875,0 0.53125,-0.171875 0.53125,-0.578125 0,-0.515625 -0.578125,-0.65625 -0.921875,-0.65625 -0.578125,0 -0.921875,0.53125 -1.046875,0.75 -0.25,-0.65625 -0.78125,-0.75 -1.078125,-0.75 -1.03125,0 -1.609375,1.28125 -1.609375,1.53125 0,0.109375 0.109375,0.109375 0.125,0.109375 0.078125,0 0.109375,-0.03125 0.125,-0.109375 0.34375,-1.0625 1,-1.3125 1.34375,-1.3125 0.1875,0 0.53125,0.09375 0.53125,0.671875 0,0.3125 -0.171875,0.96875 -0.53125,2.375 -0.15625,0.609375 -0.515625,1.03125 -0.953125,1.03125 -0.0625,0 -0.28125,0 -0.5,-0.125 0.25,-0.0625 0.46875,-0.265625 0.46875,-0.546875 0,-0.265625 -0.21875,-0.34375 -0.359375,-0.34375 -0.3125,0 -0.546875,0.25 -0.546875,0.578125 0,0.453125 0.484375,0.65625 0.921875,0.65625 0.671875,0 1.03125,-0.703125 1.046875,-0.75 0.125,0.359375 0.484375,0.75 1.078125,0.75 1.03125,0 1.59375,-1.28125 1.59375,-1.53125 0,-0.109375 -0.078125,-0.109375 -0.109375,-0.109375 -0.09375,0 -0.109375,0.046875 -0.140625,0.109375 -0.328125,1.078125 -1,1.3125 -1.3125,1.3125 -0.390625,0 -0.546875,-0.3125 -0.546875,-0.65625 0,-0.21875 0.046875,-0.4375 0.15625,-0.875 z m 0,0"
               id="path10315" />
          </g>
        </g>
        <g
           fill="#000000"
           fill-opacity="1"
           id="g10325"
           transform="matrix(0.352778,0,0,0.352778,-32.7764,-26.2744)">
          <g
             id="g10323"
             transform="translate(101.494,83.457001)">
            <path
               d="M 3.515625,-1.265625 H 3.28125 c -0.015625,0.15625 -0.09375,0.5625 -0.1875,0.625 C 3.046875,-0.59375 2.515625,-0.59375 2.40625,-0.59375 H 1.125 c 0.734375,-0.640625 0.984375,-0.84375 1.390625,-1.171875 0.515625,-0.40625 1,-0.84375 1,-1.5 0,-0.84375 -0.734375,-1.359375 -1.625,-1.359375 -0.859375,0 -1.453125,0.609375 -1.453125,1.25 0,0.34375 0.296875,0.390625 0.375,0.390625 0.15625,0 0.359375,-0.125 0.359375,-0.375 0,-0.125 -0.046875,-0.375 -0.40625,-0.375 C 0.984375,-4.21875 1.453125,-4.375 1.78125,-4.375 c 0.703125,0 1.0625,0.546875 1.0625,1.109375 0,0.609375 -0.4375,1.078125 -0.65625,1.328125 L 0.515625,-0.265625 C 0.4375,-0.203125 0.4375,-0.1875 0.4375,0 h 2.875 z m 0,0"
               id="path10321" />
          </g>
        </g>
        <g
           fill="#000000"
           fill-opacity="1"
           id="g10331"
           transform="matrix(0.352778,0,0,0.352778,-32.7764,-26.2744)">
          <g
             id="g10329"
             transform="translate(105.963,81.962997)">
            <path
               d="m 2.03125,-0.015625 c 0,-0.65625 -0.25,-1.046875 -0.640625,-1.046875 -0.328125,0 -0.53125,0.25 -0.53125,0.53125 C 0.859375,-0.265625 1.0625,0 1.390625,0 1.5,0 1.640625,-0.046875 1.734375,-0.125 1.765625,-0.15625 1.78125,-0.15625 1.78125,-0.15625 c 0.015625,0 0.015625,0 0.015625,0.140625 0,0.75 -0.34375,1.34375 -0.671875,1.671875 -0.109375,0.109375 -0.109375,0.125 -0.109375,0.15625 0,0.078125 0.046875,0.109375 0.09375,0.109375 0.109375,0 0.921875,-0.765625 0.921875,-1.9375 z m 0,0"
               id="path10327" />
          </g>
        </g>
        <g
           fill="#000000"
           fill-opacity="1"
           id="g10337"
           transform="matrix(0.352778,0,0,0.352778,-32.7764,-26.2744)">
          <g
             id="g10335"
             transform="translate(110.39436,81.962997)">
            <path
               d="m 4.84375,-3.796875 c 0.046875,-0.140625 0.046875,-0.15625 0.046875,-0.234375 0,-0.171875 -0.140625,-0.265625 -0.296875,-0.265625 -0.09375,0 -0.25,0.0625 -0.34375,0.203125 -0.015625,0.0625 -0.109375,0.359375 -0.140625,0.546875 -0.078125,0.25 -0.140625,0.53125 -0.203125,0.796875 l -0.453125,1.796875 c -0.03125,0.140625 -0.46875,0.84375 -1.125,0.84375 -0.5,0 -0.609375,-0.4375 -0.609375,-0.8125 C 1.71875,-1.375 1.890625,-2 2.21875,-2.875 2.375,-3.28125 2.421875,-3.390625 2.421875,-3.59375 c 0,-0.4375 -0.3125,-0.8125 -0.8125,-0.8125 -0.953125,0 -1.3125,1.453125 -1.3125,1.53125 0,0.109375 0.09375,0.109375 0.109375,0.109375 0.109375,0 0.109375,-0.03125 0.15625,-0.1875 0.28125,-0.9375 0.671875,-1.234375 1.015625,-1.234375 0.078125,0 0.25,0 0.25,0.3125 0,0.25 -0.109375,0.515625 -0.171875,0.703125 -0.40625,1.0625 -0.578125,1.625 -0.578125,2.09375 0,0.890625 0.625,1.1875 1.21875,1.1875 0.390625,0 0.71875,-0.171875 1,-0.453125 -0.125,0.515625 -0.25,1.015625 -0.640625,1.546875 -0.265625,0.328125 -0.640625,0.625 -1.09375,0.625 -0.140625,0 -0.59375,-0.03125 -0.765625,-0.421875 0.15625,0 0.296875,0 0.421875,-0.125 C 1.328125,1.203125 1.421875,1.0625 1.421875,0.875 1.421875,0.5625 1.15625,0.53125 1.0625,0.53125 0.828125,0.53125 0.5,0.6875 0.5,1.171875 c 0,0.5 0.4375,0.875 1.0625,0.875 1.015625,0 2.046875,-0.90625 2.328125,-2.03125 z m 0,0"
               id="path10333" />
          </g>
        </g>
        <g
           fill="#000000"
           fill-opacity="1"
           id="g10343"
           transform="matrix(0.352778,0,0,0.352778,-32.7764,-26.2744)">
          <g
             id="g10341"
             transform="translate(115.275,83.457001)">
            <path
               d="M 3.515625,-1.265625 H 3.28125 c -0.015625,0.15625 -0.09375,0.5625 -0.1875,0.625 C 3.046875,-0.59375 2.515625,-0.59375 2.40625,-0.59375 H 1.125 c 0.734375,-0.640625 0.984375,-0.84375 1.390625,-1.171875 0.515625,-0.40625 1,-0.84375 1,-1.5 0,-0.84375 -0.734375,-1.359375 -1.625,-1.359375 -0.859375,0 -1.453125,0.609375 -1.453125,1.25 0,0.34375 0.296875,0.390625 0.375,0.390625 0.15625,0 0.359375,-0.125 0.359375,-0.375 0,-0.125 -0.046875,-0.375 -0.40625,-0.375 C 0.984375,-4.21875 1.453125,-4.375 1.78125,-4.375 c 0.703125,0 1.0625,0.546875 1.0625,1.109375 0,0.609375 -0.4375,1.078125 -0.65625,1.328125 L 0.515625,-0.265625 C 0.4375,-0.203125 0.4375,-0.1875 0.4375,0 h 2.875 z m 0,0"
               id="path10339" />
          </g>
        </g>
        <g
           fill="#000000"
           fill-opacity="1"
           id="g10349"
           transform="matrix(0.352778,0,0,0.352778,-32.7764,-26.2744)">
          <g
             id="g10347"
             transform="translate(119.745,81.962997)">
            <path
               d="m 2.875,-2.5 c 0,-0.765625 -0.109375,-1.96875 -0.65625,-3.109375 -0.59375,-1.21875 -1.453125,-1.875 -1.546875,-1.875 -0.0625,0 -0.109375,0.046875 -0.109375,0.109375 0,0.03125 0,0.046875 0.1875,0.234375 0.984375,0.984375 1.546875,2.5625 1.546875,4.640625 0,1.71875 -0.359375,3.46875 -1.59375,4.71875 C 0.5625,2.34375 0.5625,2.359375 0.5625,2.390625 0.5625,2.453125 0.609375,2.5 0.671875,2.5 0.765625,2.5 1.671875,1.8125 2.25,0.546875 2.765625,-0.546875 2.875,-1.65625 2.875,-2.5 Z m 0,0"
               id="path10345" />
          </g>
        </g>
      </g>
    </g>
  </g>
</svg>
